<?xml version="1.0" standalone="no"?>
<!DOCTYPE svg PUBLIC "-//W3C//DTD SVG 20010904//EN"
 "http://www.w3.org/TR/2001/REC-SVG-20010904/DTD/svg10.dtd">
<svg version="1.0" xmlns="http://www.w3.org/2000/svg"
 width="512.000000pt" height="512.000000pt" viewBox="0 0 512.000000 512.000000"
 preserveAspectRatio="xMidYMid meet">
<metadata>
Created by potrace 1.14, written by Peter Selinger 2001-2017
</metadata>
<g transform="translate(0.000000,512.000000) scale(0.100000,-0.100000)"
fill="#000000" stroke="none">
<path d="M1291 3354 c-33 -43 -42 -90 -48 -255 l-6 -157 -123 -32 c-142 -37
-306 -101 -388 -150 -121 -73 -187 -173 -171 -259 19 -98 89 -168 250 -247
226 -110 615 -194 1115 -241 274 -25 1011 -25 1280 0 745 71 1243 225 1339
416 50 98 36 168 -54 257 -74 75 -212 146 -381 196 -109 33 -112 35 -169 96
-69 75 -129 112 -206 128 -88 18 -170 -2 -232 -56 l-35 -31 -12 38 c-29 89
-86 142 -177 164 -26 6 -57 20 -69 30 -28 26 -61 24 -88 -6 -13 -14 -32 -25
-43 -25 -75 0 -205 -80 -219 -136 -6 -24 -28 -32 -39 -14 -3 5 -29 17 -59 26
l-53 17 -11 56 c-7 31 -21 71 -32 89 -24 39 -79 65 -116 56 -38 -10 -135 -104
-190 -184 -46 -68 -74 -88 -74 -52 0 56 -98 147 -171 158 -25 4 -44 15 -54 30
-19 30 -58 31 -85 4 -11 -11 -31 -20 -44 -20 -38 0 -141 -35 -176 -60 -39 -28
-73 -99 -68 -142 6 -59 -19 -40 -36 28 -23 89 -48 137 -108 200 -91 97 -204
132 -247 78z m135 -59 c23 -14 63 -49 89 -77 48 -56 77 -128 94 -238 7 -44 15
-60 42 -82 18 -16 39 -28 46 -28 8 0 13 -13 13 -35 0 -63 38 -143 80 -171 47
-31 77 -25 92 17 l10 29 29 -24 c34 -29 103 -43 124 -26 20 17 19 37 -5 67
-11 14 -20 40 -20 58 0 35 -17 49 -41 34 -9 -5 -14 -25 -13 -55 l1 -47 -28 31
c-40 45 -75 43 -95 -5 l-16 -36 -23 24 c-13 13 -28 43 -33 65 l-9 42 76 -5
c60 -4 84 -2 109 11 24 13 57 16 144 14 98 -1 119 2 160 21 38 17 49 28 57 57
24 86 211 324 256 324 23 0 53 -35 66 -79 16 -53 7 -71 -33 -71 -150 -1 -307
-230 -340 -496 -17 -142 21 -328 87 -423 16 -24 23 -44 19 -56 -6 -16 -19 -17
-143 -10 -187 9 -464 33 -596 51 -132 18 -374 62 -387 70 -5 4 1 18 15 33 24
25 24 29 15 101 -12 92 -3 312 16 397 7 36 12 103 11 155 -3 120 11 314 25
356 15 40 45 42 106 7z m1300 -250 c27 -8 66 -29 88 -46 l38 -32 -33 -11 c-25
-8 -35 -18 -37 -37 -10 -83 236 -159 338 -103 25 13 65 20 145 25 140 7 200
33 215 90 18 68 110 129 192 129 15 0 53 -10 85 -22 109 -40 220 -180 257
-320 16 -63 31 -339 21 -397 -8 -47 -4 -45 -203 -87 -158 -34 -156 -34 -186
29 -41 83 -50 154 -35 282 19 170 19 180 -10 180 -24 0 -26 -5 -38 -90 -8 -49
-13 -139 -11 -200 3 -99 7 -117 35 -176 l31 -67 -127 -16 c-305 -38 -572 -56
-869 -56 l-203 0 20 28 c11 16 37 46 59 68 38 40 38 40 31 100 -11 91 -10 211
3 304 18 131 17 155 -7 155 -14 0 -22 -11 -32 -45 -20 -68 -32 -228 -27 -348
l5 -107 -34 -39 -34 -39 -32 64 c-85 174 -78 407 19 599 48 95 129 179 185
193 40 10 103 7 151 -8z"/>
<path d="M1510 2451 c-16 -31 -12 -66 10 -86 19 -17 21 -17 40 0 34 31 20 105
-20 105 -11 0 -24 -9 -30 -19z"/>
<path d="M1823 2462 c-23 -15 -26 -66 -6 -91 17 -20 22 -22 41 -12 17 9 22 21
22 49 0 52 -25 75 -57 54z"/>
<path d="M1648 2358 c-32 -11 -35 -24 -12 -56 19 -27 64 -29 87 -4 18 19 22
48 10 55 -21 11 -61 14 -85 5z"/>
<path d="M2941 2776 c-13 -16 0 -89 24 -136 19 -37 69 -72 96 -68 17 2 40 25
45 45 0 1 19 -7 41 -18 55 -27 107 -23 111 9 2 13 -3 31 -11 40 -9 9 -17 33
-19 52 -3 30 -7 35 -28 35 -23 0 -25 -4 -25 -43 0 -48 -8 -53 -31 -16 -24 36
-64 30 -84 -14 -15 -32 -17 -32 -32 -15 -9 10 -22 41 -29 68 -19 73 -34 90
-58 61z"/>
<path d="M2752 2398 c-17 -17 -15 -64 4 -83 14 -14 19 -14 38 -2 25 17 32 48
16 76 -12 23 -40 27 -58 9z"/>
<path d="M3048 2399 c-26 -15 -23 -64 4 -83 20 -14 24 -14 40 1 20 18 23 45 8
74 -12 21 -26 23 -52 8z"/>
<path d="M2857 2303 c-27 -26 23 -81 63 -68 24 8 44 41 36 61 -6 14 -86 21
-99 7z"/>
</g>
</svg>
