<svg width="411" height="438" viewBox="0 0 411 438" fill="none" xmlns="http://www.w3.org/2000/svg">
<g filter="url(#filter0_i_138_9714)">
<path d="M302.129 253.118C318.425 240.004 328.837 221.879 335.49 210.245C335.767 209.762 335.96 209.236 336.007 208.67C336.072 207.89 336.091 206.738 335.765 205.95C335.117 204.379 332.598 203.037 332.598 203.037C332.598 203.037 332.992 200.761 332.458 199.467C331.809 197.897 329.29 196.555 329.29 196.555C329.29 196.555 329.684 194.279 329.15 192.985C328.501 191.415 325.983 190.073 325.983 190.073C325.983 190.073 326.377 187.797 325.842 186.503C325.501 185.676 324.641 184.912 323.903 184.375C323.133 183.813 322.187 183.647 321.27 183.776C318.498 184.167 312.235 185.17 308.108 186.754C303.04 188.701 295.951 193.539 295.951 193.539L149.259 227.679L87.619 221.72C86.9106 221.651 86.197 221.744 85.5698 222.071C84.6406 222.556 83.304 223.395 82.7644 224.431C81.8233 226.237 82.7306 229.748 82.7306 229.748C82.7306 229.748 79.8177 230.902 78.9527 232.563C78.0116 234.369 78.9189 237.88 78.9189 237.88C78.9189 237.88 76.0059 239.034 75.141 240.695C74.1999 242.501 75.1072 246.012 75.1072 246.012C75.1072 246.012 72.1942 247.167 71.3292 248.827C70.7905 249.861 70.8575 251.454 71.0132 252.626C71.1455 253.622 71.6888 254.5 72.4565 255.13C75.9816 258.02 83.3618 263.32 92.1768 267.429C102.122 272.066 124.701 277.495 132.37 279.213C129.782 282.677 120.911 300.268 117.407 315.617C114.35 329.012 110.677 343.202 109.293 353.317C108.968 355.691 110.524 357.906 112.789 358.495L163.658 371.706C165.677 372.231 167.734 371.307 168.907 369.572C175.671 359.564 189.924 347.758 205.686 345.968C217.684 344.605 231.685 348.14 247.118 352.717C259.754 356.464 271.21 363.961 279.625 367.235C280.958 367.754 282.414 367.506 283.586 366.724C289.716 362.633 298.578 357.751 306.07 350.066C312.203 343.775 317.008 336.632 320.145 331.455C320.867 330.262 320.938 328.81 320.243 327.561C318.977 325.287 316.397 320.935 311.648 313.421C304.462 302.052 290.096 295.723 283.811 293.98C283.939 292.502 281.977 285.899 280.673 280.157L277.939 268.111C281.376 266.052 293.444 260.107 302.129 253.118Z" fill="white"/>
</g>
<g filter="url(#filter1_i_138_9714)">
<path fill-rule="evenodd" clip-rule="evenodd" d="M86.6335 224.169C86.7965 224.084 87.0582 224.022 87.4388 224.059L149.61 230.034L297.475 195.626L297.82 195.39L297.837 195.379L297.893 195.341C297.943 195.308 298.018 195.257 298.117 195.191C298.315 195.059 298.605 194.867 298.97 194.63C299.7 194.156 300.726 193.503 301.906 192.791C304.298 191.348 307.207 189.735 309.555 188.834C313.426 187.349 319.468 186.369 322.266 185.974C322.734 185.908 323.046 186.015 323.22 186.142C323.519 186.36 323.801 186.594 324.022 186.822C324.131 186.933 324.209 187.028 324.263 187.103C324.307 187.164 324.324 187.198 324.327 187.204C324.329 187.211 324.339 187.24 324.351 187.297C324.367 187.368 324.382 187.463 324.393 187.582C324.417 187.826 324.42 188.109 324.407 188.399C324.394 188.684 324.369 188.942 324.346 189.129C324.334 189.221 324.324 189.292 324.317 189.337C324.314 189.36 324.311 189.375 324.31 189.383L324.31 189.386L324.309 189.388L324.309 189.389L323.998 191.178L325.583 192.02L325.584 192.021L325.591 192.025C325.601 192.03 325.618 192.04 325.644 192.054C325.694 192.082 325.773 192.128 325.872 192.188C326.072 192.31 326.342 192.485 326.622 192.694C326.907 192.907 327.167 193.129 327.368 193.341C327.466 193.445 327.537 193.533 327.584 193.601C327.622 193.655 327.638 193.685 327.641 193.691C327.643 193.698 327.653 193.727 327.665 193.784C327.681 193.855 327.696 193.95 327.707 194.069C327.731 194.313 327.733 194.596 327.721 194.886C327.708 195.171 327.682 195.429 327.659 195.616C327.648 195.708 327.638 195.779 327.631 195.824C327.628 195.847 327.625 195.862 327.624 195.87L327.624 195.872L327.623 195.875L327.623 195.876L327.312 197.665L328.897 198.507L328.898 198.508L328.9 198.509L328.901 198.509L328.905 198.512C328.914 198.517 328.932 198.527 328.957 198.541C329.008 198.569 329.086 198.615 329.185 198.675C329.386 198.797 329.655 198.972 329.936 199.181C330.221 199.394 330.481 199.616 330.681 199.828C330.78 199.932 330.85 200.02 330.898 200.088C330.936 200.142 330.951 200.172 330.954 200.178C330.957 200.185 330.967 200.214 330.979 200.271C330.994 200.342 331.009 200.437 331.021 200.556C331.044 200.8 331.047 201.083 331.034 201.373C331.022 201.658 330.996 201.916 330.973 202.103C330.962 202.195 330.951 202.266 330.945 202.311C330.941 202.334 330.939 202.349 330.938 202.357L330.937 202.36L330.937 202.362L330.937 202.363L330.626 204.152L332.211 204.994L332.212 204.995L332.213 204.996L332.215 204.996L332.219 204.999C332.228 205.004 332.246 205.014 332.271 205.028C332.321 205.056 332.4 205.102 332.499 205.162C332.699 205.284 332.969 205.459 333.249 205.668C333.534 205.881 333.794 206.103 333.995 206.315C334.093 206.419 334.164 206.507 334.212 206.575C334.25 206.629 334.265 206.659 334.268 206.665C334.271 206.673 334.286 206.717 334.303 206.807C334.322 206.91 334.338 207.044 334.347 207.205C334.366 207.534 334.352 207.893 334.326 208.213C334.315 208.337 334.267 208.524 334.117 208.784C327.428 220.455 317.17 238.231 301.204 251.059C294.614 256.353 286.131 260.98 280.887 263.841C279.324 264.693 278.048 265.389 277.197 265.898L275.738 266.771L278.867 280.555C279.343 282.651 279.909 284.877 280.422 286.894C280.621 287.676 280.812 288.427 280.987 289.126C281.305 290.4 281.567 291.498 281.742 292.356C281.829 292.786 281.888 293.124 281.921 293.377C281.945 293.558 281.949 293.643 281.95 293.659L281.773 295.693L283.737 296.236C286.681 297.05 291.655 298.981 296.752 302.087C301.859 305.199 306.919 309.385 310.241 314.634C314.991 322.138 317.547 326.448 318.781 328.662C319.001 329.057 319.021 329.55 318.71 330.062C315.609 335.171 310.893 342.156 304.912 348.281C299.141 354.19 292.587 358.354 286.958 361.93C285.472 362.874 284.05 363.777 282.724 364.66C282.061 365.103 281.362 365.164 280.825 364.955C277.736 363.756 274.237 361.977 270.278 359.963C269.007 359.316 267.687 358.645 266.319 357.962C260.782 355.196 254.593 352.307 248.054 350.374C232.635 345.815 218.164 342.127 205.609 343.555C188.974 345.448 174.156 357.778 167.111 368.179C166.405 369.221 165.261 369.646 164.284 369.393L113.283 356.19C112.119 355.888 111.443 354.805 111.586 353.763C112.621 346.233 114.946 336.416 117.358 326.234C118.143 322.919 118.938 319.565 119.699 316.238C121.412 308.764 124.452 300.676 127.409 293.994C130.394 287.248 133.178 282.195 134.304 280.692C134.794 280.038 134.915 279.158 134.624 278.367C134.334 277.576 133.672 276.986 132.876 276.808C129.056 275.955 121.511 274.178 113.688 272.04C105.815 269.887 97.8387 267.416 93.0546 265.191C84.4372 261.184 77.209 256.001 73.7957 253.208C73.4433 252.92 73.2832 252.594 73.2471 252.322C73.181 251.823 73.1423 251.291 73.1644 250.816C73.188 250.31 73.273 250.057 73.3126 249.982C73.4229 249.77 73.8716 249.337 74.6704 248.864C75.0119 248.661 75.3368 248.498 75.577 248.386C75.6958 248.33 75.7904 248.289 75.8518 248.262C75.8824 248.249 75.9045 248.24 75.9169 248.235L75.9234 248.232L75.9248 248.232L75.926 248.231L75.9277 248.231L77.8332 247.476M72.4172 244.554C72.3673 244.582 72.317 244.612 72.2662 244.642C71.3874 245.162 69.9414 246.139 69.1837 247.59C68.6827 248.549 68.5306 249.611 68.4912 250.454C68.4504 251.328 68.5228 252.181 68.6123 252.855C68.8406 254.577 69.7693 256.008 70.9559 256.979C74.6094 259.969 82.177 265.391 91.2336 269.603C96.4201 272.014 104.748 274.574 112.608 276.723C118.625 278.368 124.474 279.799 128.631 280.771C127.099 283.478 125.13 287.398 123.147 291.879C120.123 298.711 116.953 307.111 115.146 315.002C114.411 318.21 113.635 321.485 112.861 324.752C110.433 335 108.025 345.168 106.954 352.955C106.444 356.664 108.887 360.015 112.263 360.889L163.264 374.093C166.336 374.888 169.318 373.462 170.965 371.031C177.494 361.392 191.267 350.075 206.242 348.372C217.751 347.062 231.355 350.44 246.881 355.031C253.011 356.843 258.897 359.577 264.378 362.316C265.645 362.949 266.899 363.587 268.134 364.215C272.151 366.259 275.955 368.194 279.287 369.487C281.422 370.316 283.642 369.88 285.33 368.756C286.525 367.959 287.853 367.117 289.274 366.215C294.929 362.628 302.065 358.1 308.246 351.771C314.57 345.295 319.496 337.979 322.69 332.719C323.828 330.844 323.991 328.431 322.818 326.325C321.516 323.988 318.901 319.587 314.134 312.054C310.255 305.926 304.513 301.26 299.044 297.927C294.367 295.077 289.763 293.127 286.428 292.039C286.394 291.857 286.358 291.67 286.319 291.48C286.121 290.504 285.835 289.313 285.515 288.031C285.329 287.286 285.131 286.508 284.927 285.709C284.42 283.714 283.88 281.594 283.42 279.566L281.085 269.278C281.59 268.999 282.17 268.683 282.812 268.333C287.973 265.522 297.163 260.516 304.133 254.917C320.857 241.48 331.495 222.962 338.157 211.339C338.562 210.632 338.903 209.764 338.987 208.757C339.025 208.296 339.054 207.688 339.017 207.047C338.982 206.437 338.88 205.63 338.562 204.859C337.956 203.394 336.669 202.324 335.919 201.764C335.849 201.712 335.78 201.661 335.713 201.613C335.742 200.818 335.72 199.514 335.248 198.372C334.642 196.907 333.355 195.837 332.605 195.277C332.535 195.225 332.467 195.174 332.399 195.126C332.428 194.331 332.406 193.027 331.934 191.885C331.328 190.42 330.041 189.35 329.291 188.79C329.221 188.738 329.153 188.687 329.085 188.639C329.114 187.844 329.093 186.54 328.62 185.398C327.987 183.867 326.603 182.756 325.839 182.201C324.469 181.205 322.886 180.979 321.514 181.173C318.752 181.562 312.233 182.594 307.827 184.285C305.093 185.334 301.905 187.12 299.472 188.587C298.239 189.331 297.17 190.011 296.408 190.506C296.038 190.747 295.74 190.944 295.529 191.084L149.183 225.139L87.7476 219.234C86.7076 219.134 85.5382 219.258 84.4431 219.829C83.9092 220.107 83.2167 220.507 82.5562 221.016C81.9247 221.503 81.1566 222.214 80.66 223.166C79.8316 224.752 79.9116 226.734 80.0251 227.884C80.0382 228.016 80.0526 228.145 80.0681 228.271C80.0182 228.3 79.9678 228.329 79.9171 228.359C79.0382 228.88 77.5922 229.856 76.8345 231.307C76.0061 232.893 76.0862 234.875 76.1997 236.025C76.2127 236.157 76.2272 236.287 76.2426 236.412C76.1928 236.441 76.1424 236.47 76.0916 236.5C75.2128 237.021 73.7668 237.997 73.0091 239.448C72.1807 241.035 72.2607 243.016 72.3742 244.166C72.3873 244.299 72.4018 244.428 72.4172 244.554ZM81.1216 237.257L81.1193 237.248C81.1155 237.232 81.1089 237.205 81.1001 237.167C81.0826 237.091 81.0567 236.974 81.0274 236.825C80.9682 236.524 80.8985 236.111 80.8539 235.66C80.7494 234.6 80.8475 233.921 80.9635 233.699C81.0738 233.488 81.5224 233.054 82.3212 232.581C82.6627 232.379 82.9877 232.216 83.2279 232.103C83.3466 232.048 83.4413 232.006 83.5027 231.98C83.5332 231.967 83.5553 231.958 83.5677 231.952L83.5742 231.95L83.5769 231.949L83.5785 231.948L85.484 231.193M84.947 229.116L84.9447 229.107C84.9409 229.091 84.9343 229.064 84.9256 229.026C84.908 228.95 84.8821 228.833 84.8529 228.684C84.7936 228.383 84.7239 227.97 84.6793 227.518C84.5748 226.459 84.6729 225.78 84.7889 225.558C84.8336 225.472 85.0067 225.244 85.4138 224.931C85.7918 224.639 86.2356 224.377 86.6335 224.169M84.947 229.116L84.9474 229.118L84.9478 229.119L84.9482 229.121M81.1216 237.257L81.122 237.259L81.1223 237.26L81.1228 237.262L81.6586 239.335L79.7533 240.089L79.7514 240.09L79.7502 240.091L79.7488 240.091L79.7423 240.094C79.7299 240.099 79.7078 240.108 79.6772 240.121C79.6159 240.147 79.5212 240.189 79.4024 240.244C79.1622 240.357 78.8373 240.52 78.4958 240.722C77.697 241.196 77.2484 241.629 77.138 241.84C77.022 242.062 76.924 242.742 77.0285 243.801C77.0731 244.252 77.1428 244.665 77.202 244.966C77.2313 245.115 77.2572 245.232 77.2747 245.308C77.2835 245.346 77.2901 245.374 77.2939 245.389L77.2962 245.399L77.2966 245.4L77.2969 245.402L77.2974 245.403" fill="#19191B"/>
</g>
<g filter="url(#filter2_i_138_9714)">
<path d="M173.28 72.5376C186.193 70.0836 197.795 71.7434 201.982 72.88C204.244 66.1046 212.14 54.1486 232.662 52.187C254.294 50.1192 286.21 89.66 287.028 128.502C287.626 156.87 279.615 161.678 279.615 161.678C289.684 171.24 297.833 184.521 293.801 199.371C286.464 226.393 213.134 250.648 153.022 229.947C137.221 224.506 125.675 217.253 117.243 209.626C113.755 212.913 109.669 214.811 105.186 215.785C87.1492 219.703 77.1476 179.348 71.2165 149.508C65.2854 119.668 81.8857 79.6737 104.067 73.5407C121.812 68.6344 129.934 81.2214 131.777 88.1282C140.23 83.9539 160.366 74.9916 173.28 72.5376Z" fill="#FBFBFB"/>
</g>
<path fill-rule="evenodd" clip-rule="evenodd" d="M197.922 99.3228C196.634 99.4569 195.72 100.639 195.879 101.963C196.104 103.832 196.3 106.92 196.144 109.997C195.982 113.19 195.458 115.894 194.56 117.358C193.472 119.133 192.247 120.559 191.159 121.621C190.751 120.646 190.184 119.574 189.418 118.433C187.734 115.923 186.098 113.959 185.078 112.842C183.268 110.858 180.584 112.316 180.362 114.4C180.12 116.669 178.941 120.459 175.822 122.627C174.952 123.232 174.119 123.718 173.342 124.109C174.008 122.652 174.526 120.936 174.469 119.153C174.408 117.24 174.151 115.708 173.824 114.536C173.518 113.436 173.103 112.478 172.606 111.853C171.776 110.81 170.295 110.636 169.298 111.464C168.3 112.291 168.163 113.807 168.992 114.85C168.974 114.827 168.965 114.815 168.964 114.816C168.959 114.819 169.121 115.088 169.309 115.763C169.518 116.513 169.724 117.646 169.773 119.203C169.803 120.132 169.457 121.305 168.786 122.58C168.133 123.821 167.283 124.95 166.593 125.727C165.877 126.533 165.703 127.677 166.101 128.665C166.522 129.706 167.551 130.468 168.773 130.407C170.934 130.3 174.526 129.41 178.516 126.637C181.475 124.58 183.174 121.664 184.102 119.043C184.572 119.669 185.067 120.36 185.568 121.106C186.918 123.118 187.297 124.595 187.373 125.242C187.493 126.267 188.112 127.055 188.819 127.476C189.549 127.912 190.709 128.127 191.746 127.406C193.457 126.215 196.261 123.727 198.553 119.99C200.126 117.424 200.669 113.637 200.836 110.354C201.008 106.955 200.795 103.581 200.542 101.478C200.383 100.153 199.21 99.1886 197.922 99.3228Z" fill="#19191B"/>
<path d="M211.327 159.712C211.581 161.369 215.206 165.612 218.798 165.118C222.39 164.624 224.59 159.58 224.335 157.923C224.081 156.266 221.811 155.206 218.219 155.7C214.627 156.194 211.072 158.055 211.327 159.712Z" fill="#19191B"/>
<path fill-rule="evenodd" clip-rule="evenodd" d="M122.795 78.2144C126.75 81.2205 128.973 85.5733 129.779 88.5961L130.542 91.4572L133.08 90.2021C141.521 86.0286 161.386 77.1977 173.954 74.8101C186.486 72.4294 197.726 74.0681 201.604 75.1245L203.664 75.6859L204.349 73.6284C206.34 67.6433 213.52 56.3621 233.047 54.5007C237.735 54.0538 243.244 55.8579 249.031 59.7173C254.791 63.5584 260.632 69.3113 265.89 76.3835C276.422 90.5493 284.364 109.663 284.769 128.472C285.069 142.445 283.244 150.386 281.482 154.739C280.791 156.445 280.111 157.598 279.573 158.351C275.71 154.892 271.672 151.974 267.975 149.696C267.964 149.559 267.951 149.412 267.937 149.254C267.831 148.088 267.649 146.362 267.342 144.087C266.728 139.536 265.612 132.791 263.602 123.935C259.936 107.784 255.207 97.4823 251.747 90.3752C251.159 89.1679 249.752 88.6568 248.604 89.2336C247.456 89.8103 247.001 91.2566 247.589 92.4638C250.955 99.3782 255.508 109.292 259.056 124.922C261.033 133.63 262.122 140.228 262.716 144.629C263.014 146.83 263.187 148.482 263.286 149.575C263.335 150.122 263.366 150.528 263.384 150.794C263.393 150.926 263.399 151.024 263.403 151.086C263.404 151.117 263.406 151.139 263.406 151.152L263.407 151.165L263.407 151.165L263.407 151.166L263.407 151.166L263.407 151.167L263.47 152.527L264.623 153.21C268.904 155.747 273.714 159.219 278.124 163.409C278.15 163.435 278.176 163.46 278.203 163.484C280.825 165.983 283.303 168.736 285.442 171.699C291.175 179.639 294.318 188.84 291.652 198.695C290.049 204.619 284.67 210.804 276.013 216.441C267.431 222.029 255.952 226.862 242.764 230.241C216.373 237.002 183.515 237.843 153.997 227.646C139.716 222.713 129.046 216.296 121.071 209.53C133.78 196.476 140.943 177.821 136.378 157.711C133.926 146.909 131.518 140.055 129.531 135.094C128.96 133.668 128.385 132.31 127.878 131.109C127.543 130.318 127.238 129.595 126.981 128.966C126.287 127.268 125.794 125.897 125.485 124.534C125.188 123.225 123.929 122.384 122.674 122.656C121.419 122.929 120.642 124.212 120.939 125.522C121.342 127.296 121.961 128.974 122.687 130.752C123.008 131.537 123.329 132.294 123.665 133.088C124.139 134.206 124.643 135.398 125.224 136.847C127.117 141.574 129.444 148.172 131.833 158.698C136.157 177.75 128.902 195.573 115.974 207.779C112.434 211.121 109.131 213.552 105.61 213.33C95.3043 212.682 88.8488 204.792 84.1389 192.389C80.2452 182.135 77.8186 169.498 75.3988 156.896C74.8904 154.248 74.3824 151.602 73.8611 148.981C71.0106 134.644 73.5503 117.684 79.5687 103.53C85.6263 89.283 94.9115 78.5335 105.006 75.741C113.237 73.4641 118.948 75.2906 122.795 78.2144ZM117.648 212.797C114.42 215.65 110.329 218.473 105.455 218.167C92.2644 217.337 84.7096 206.988 79.7989 194.056C75.7319 183.346 73.2032 170.161 70.7863 157.558C70.286 154.949 69.7905 152.366 69.2872 149.834C66.1998 134.306 68.9713 116.325 75.2862 101.474C81.5618 86.7143 91.6321 74.392 103.688 71.0571C113.177 68.4322 120.385 70.4547 125.488 74.3337C129.385 77.2955 131.92 81.2353 133.339 84.6715C142.779 80.1669 160.875 72.3452 172.991 70.0434C184.61 67.8361 195.212 68.8633 200.677 69.9737C203.947 62.3554 212.794 51.5536 232.493 49.6757C238.607 49.0929 245.186 51.4646 251.481 55.6627C257.803 59.8793 264.039 66.0657 269.56 73.4911C280.585 88.3204 289.007 108.434 289.439 128.496C289.749 142.912 287.88 151.57 285.796 156.718C284.872 159 283.906 160.594 283.068 161.689C285.246 163.91 287.309 166.308 289.153 168.863C295.443 177.574 299.337 188.345 296.152 200.121C294.097 207.716 287.58 214.701 278.573 220.565C269.491 226.478 257.539 231.478 244 234.947C216.939 241.879 183.16 242.786 152.632 232.239C137.526 227.021 126.17 220.146 117.648 212.797Z" fill="#19191B"/>
<path d="M317.695 156.016C317.095 153.374 314.581 151.673 312.08 152.216L305.285 153.692C302.784 154.235 301.242 156.817 301.842 159.459L311.614 202.512C312.213 205.154 314.727 206.855 317.229 206.312L324.023 204.836C326.525 204.293 328.067 201.711 327.467 199.069L317.695 156.016Z" fill="#7C7262"/>
<path fill-rule="evenodd" clip-rule="evenodd" d="M306.371 158.476L313.166 157L322.938 200.053L316.143 201.528L306.371 158.476ZM312.08 152.216C314.581 151.673 317.095 153.374 317.695 156.016L327.467 199.069C328.067 201.711 326.525 204.293 324.023 204.836L317.229 206.312C314.727 206.855 312.213 205.154 311.614 202.512L301.842 159.459C301.242 156.817 302.784 154.235 305.285 153.692L312.08 152.216Z" fill="#19191B"/>
<path d="M274.833 143.613C279.435 163.889 296.967 177.327 313.992 173.63C331.016 169.932 341.087 150.498 336.485 130.223C331.883 109.948 314.351 96.5088 297.326 100.207C280.301 103.904 270.231 123.338 274.833 143.613Z" fill="#7C7262"/>
<path fill-rule="evenodd" clip-rule="evenodd" d="M312.911 168.867C298.915 171.907 283.509 160.857 279.371 142.628C275.234 124.398 284.412 108.009 298.407 104.969C312.402 101.929 327.809 112.979 331.946 131.209C336.084 149.438 326.906 165.827 312.911 168.867ZM313.992 173.63C296.967 177.327 279.435 163.889 274.833 143.613C270.231 123.338 280.301 103.904 297.326 100.207C314.351 96.5088 331.883 109.948 336.485 130.223C341.087 150.498 331.016 169.932 313.992 173.63Z" fill="#19191B"/>
<path d="M283.641 141.701C286.94 156.231 299.471 165.87 311.632 163.229C323.793 160.587 330.977 146.667 327.679 132.136C324.381 117.606 311.849 107.967 299.688 110.609C287.528 113.25 280.343 127.17 283.641 141.701Z" fill="#C2E5FF"/>
<path fill-rule="evenodd" clip-rule="evenodd" d="M310.554 158.481C301.415 160.466 290.995 153.218 288.158 140.72C285.321 128.221 291.626 117.341 300.766 115.356C309.905 113.371 320.325 120.619 323.162 133.117C325.999 145.616 319.694 156.496 310.554 158.481ZM311.632 163.229C299.471 165.87 286.94 156.231 283.641 141.701C280.343 127.17 287.528 113.25 299.688 110.609C311.849 107.967 324.381 117.606 327.679 132.136C330.977 146.667 323.793 160.587 311.632 163.229Z" fill="#19191B"/>
<path fill-rule="evenodd" clip-rule="evenodd" d="M310.078 121.148C309.4 122.266 309.741 123.766 310.838 124.498C311.531 124.96 312.203 125.431 312.765 125.942C313.341 126.467 313.638 126.892 313.757 127.198C313.945 127.68 314.107 128.074 314.258 128.439C314.465 128.939 314.65 129.388 314.848 129.941C315.301 131.204 316.647 131.876 317.855 131.441C319.064 131.006 319.676 129.629 319.223 128.365C319.003 127.75 318.719 127.056 318.466 126.439C318.323 126.09 318.19 125.767 318.085 125.496C317.564 124.153 316.636 123.11 315.796 122.345C314.941 121.567 314.006 120.926 313.293 120.45C312.195 119.718 310.756 120.03 310.078 121.148Z" fill="white"/>
<path fill-rule="evenodd" clip-rule="evenodd" d="M318.635 131.623C317.485 132.195 317.024 133.638 317.608 134.846C317.713 135.064 317.826 135.231 317.91 135.344C317.918 135.356 317.926 135.367 317.935 135.378C318.504 136.371 319.683 136.855 320.753 136.469C321.961 136.034 322.574 134.657 322.121 133.393C321.965 132.956 321.737 132.648 321.629 132.512C320.98 131.495 319.699 131.095 318.635 131.623ZM318.048 135.521L318.048 135.521C318.049 135.521 318.049 135.521 318.049 135.521C318.049 135.521 318.049 135.521 318.048 135.521Z" fill="white"/>
<path d="M75.498 239.5L79.998 239L78.998 234.5" stroke="#131314" stroke-width="3"/>
<path d="M79 232L83.5 231.5L82.5 227" stroke="#131314" stroke-width="3"/>
<path d="M84.5 245C84.5 247.761 83.4853 251 81 251C78.5147 251 77 245.761 77 243C77 240.238 83.5147 238.5 86 238.5C88.4853 238.5 84.5 242.239 84.5 245Z" fill="#BFBFBF"/>
<path d="M88.5004 237.5C88.5004 240.262 87.4857 243.5 85.0004 243.5C82.5151 243.5 80.0001 237 81 234C82 231 88.5 230 90 230.5C92.4853 230.5 88.5004 234.739 88.5004 237.5Z" fill="#BFBFBF"/>
<path d="M92.5756 229.086C92.5756 231.847 89.9838 234.999 87.4985 234.999C85.0132 234.999 83.4309 228.315 84.4988 226C85.9224 222.914 90.9986 225 91.999 225C94.4843 225 92.5756 226.324 92.5756 229.086Z" fill="#BFBFBF"/>
<path d="M174 156.083C178.456 153.388 183.348 151.758 187.973 149.445C189.657 148.603 191.701 147 193.562 147" stroke="#131314" stroke-width="4" stroke-linecap="round"/>
<path d="M245.343 136.602C240.14 136.785 235.153 138.098 230.016 138.693C228.146 138.91 225.558 138.686 224 139.705" stroke="#131314" stroke-width="4" stroke-linecap="round"/>
<path d="M189 236L179 154L189.5 149L204 237.5L189 236Z" fill="#D8EEFF" stroke="#131314" stroke-width="3"/>
<path d="M254.5 229.5L228.289 138.349L239.5 137L268.5 224L254.5 229.5Z" fill="#D8EEFF" stroke="#131314" stroke-width="3"/>
<defs>
<filter id="filter0_i_138_9714" x="70.9023" y="183.735" width="269.143" height="188.118" filterUnits="userSpaceOnUse" color-interpolation-filters="sRGB">
<feFlood flood-opacity="0" result="BackgroundImageFix"/>
<feBlend mode="normal" in="SourceGraphic" in2="BackgroundImageFix" result="shape"/>
<feColorMatrix in="SourceAlpha" type="matrix" values="0 0 0 0 0 0 0 0 0 0 0 0 0 0 0 0 0 0 127 0" result="hardAlpha"/>
<feOffset dx="18"/>
<feGaussianBlur stdDeviation="2"/>
<feComposite in2="hardAlpha" operator="arithmetic" k2="-1" k3="1"/>
<feColorMatrix type="matrix" values="0 0 0 0 0 0 0 0 0 0 0 0 0 0 0 0 0 0 0.25 0"/>
<feBlend mode="normal" in2="shape" result="effect1_innerShadow_138_9714"/>
</filter>
<filter id="filter1_i_138_9714" x="64.4805" y="181.109" width="274.555" height="197.205" filterUnits="userSpaceOnUse" color-interpolation-filters="sRGB">
<feFlood flood-opacity="0" result="BackgroundImageFix"/>
<feBlend mode="normal" in="SourceGraphic" in2="BackgroundImageFix" result="shape"/>
<feColorMatrix in="SourceAlpha" type="matrix" values="0 0 0 0 0 0 0 0 0 0 0 0 0 0 0 0 0 0 127 0" result="hardAlpha"/>
<feOffset dx="-28" dy="8"/>
<feGaussianBlur stdDeviation="2"/>
<feComposite in2="hardAlpha" operator="arithmetic" k2="-1" k3="1"/>
<feColorMatrix type="matrix" values="0 0 0 0 0 0 0 0 0 0 0 0 0 0 0 0 0 0 0.25 0"/>
<feBlend mode="normal" in2="shape" result="effect1_innerShadow_138_9714"/>
</filter>
<filter id="filter2_i_138_9714" x="70.0039" y="52.1094" width="228.85" height="189.609" filterUnits="userSpaceOnUse" color-interpolation-filters="sRGB">
<feFlood flood-opacity="0" result="BackgroundImageFix"/>
<feBlend mode="normal" in="SourceGraphic" in2="BackgroundImageFix" result="shape"/>
<feColorMatrix in="SourceAlpha" type="matrix" values="0 0 0 0 0 0 0 0 0 0 0 0 0 0 0 0 0 0 127 0" result="hardAlpha"/>
<feOffset dx="20" dy="8"/>
<feGaussianBlur stdDeviation="2"/>
<feComposite in2="hardAlpha" operator="arithmetic" k2="-1" k3="1"/>
<feColorMatrix type="matrix" values="0 0 0 0 0 0 0 0 0 0 0 0 0 0 0 0 0 0 0.25 0"/>
<feBlend mode="normal" in2="shape" result="effect1_innerShadow_138_9714"/>
</filter>
</defs>
</svg>
