<svg width="396" height="29" viewBox="0 0 396 29" fill="none" xmlns="http://www.w3.org/2000/svg">
<path d="M8.42875 1.296C12.7168 1.264 15.9808 3.984 15.9808 7.76C15.9808 11.536 12.7168 14.224 8.42875 14.224C4.01275 14.224 0.74875 11.536 0.74875 7.76C0.74875 3.984 4.01275 1.264 8.42875 1.296ZM4.65275 7.76C4.58875 9.808 6.22075 11.024 8.42875 11.024C10.5408 11.024 12.1408 9.808 12.1408 7.76C12.1408 5.744 10.5408 4.528 8.42875 4.56C6.22075 4.528 4.58875 5.744 4.65275 7.76ZM5.03675 18.96V15.888H24.1088V23.568H9.00475V25.424H24.8768V28.56H5.10075V20.688H20.1408V18.96H5.03675ZM20.1408 14.672V0.4H24.1088V14.672H20.1408ZM51.765 0.4V28.88H47.733V0.4H51.765ZM28.085 20.496C32.789 18.448 35.125 13.68 35.125 9.36V8.272H29.045V5.072H35.125V1.04H39.093V5.072H44.981V8.272H39.093V9.36C39.093 13.456 41.429 18.128 46.133 20.048L44.021 23.12C40.789 21.808 38.453 19.088 37.173 15.824C35.893 19.28 33.557 22.192 30.261 23.568L28.085 20.496ZM78.0773 0.4V11.6H82.2373V14.864H78.0773V28.88H74.1093V0.4H78.0773ZM55.4853 7.888V4.688H61.8853V0.848H65.9173V4.688H72.1893V7.888H55.4853ZM56.6373 16.272C56.6053 12.272 59.7093 9.456 63.9333 9.488C68.0613 9.456 71.1653 12.272 71.1653 16.272C71.1653 20.208 68.0613 23.024 63.9333 22.992C59.7093 23.024 56.6053 20.208 56.6373 16.272ZM60.4773 16.272C60.4453 18.448 61.8853 19.76 63.9333 19.728C65.8853 19.76 67.3253 18.448 67.3253 16.272C67.3253 14.064 65.8853 12.72 63.9333 12.688C61.8853 12.72 60.4453 14.064 60.4773 16.272ZM106.374 8.208V11.344H86.5335V1.424H90.5015V8.208H106.374ZM83.2695 17.488V14.352H109.254V17.488H83.2695ZM86.2775 28.24V19.792H90.2455V25.04H106.566V28.24H86.2775ZM144.285 13.84V17.04H118.301V13.84H129.373V11.408H121.437V1.68H141.213V4.816H125.405V8.272H141.341V11.408H133.277V13.84H144.285ZM121.309 23.696C121.277 20.304 125.021 18.448 131.229 18.448C137.405 18.448 141.117 20.304 141.149 23.696C141.117 27.024 137.405 28.912 131.229 28.944C125.021 28.912 121.277 27.024 121.309 23.696ZM125.341 23.696C125.309 25.168 127.293 25.872 131.229 25.872C135.101 25.872 137.149 25.168 137.181 23.696C137.149 22.224 135.101 21.456 131.229 21.456C127.293 21.456 125.309 22.224 125.341 23.696ZM171.941 11.728V14.864H160.869V16.656H168.741V23.952H152.869V25.68H169.509V28.688H148.965V21.136H164.837V19.664H148.965V16.656H156.901V14.864H145.957V11.728H171.941ZM149.157 10.256V1.296H168.613V10.256H149.157ZM153.061 7.12H164.645V4.368H153.061V7.12ZM186.605 0.848C193.133 0.848 196.909 2.544 196.909 5.712C196.909 8.848 193.133 10.576 186.605 10.576C180.013 10.576 176.205 8.848 176.237 5.712C176.205 2.544 180.013 0.848 186.605 0.848ZM173.613 15.056V11.92H199.597V15.056H173.613ZM176.621 28.688V21.2H192.493V19.664H176.621V16.72H196.397V23.952H180.525V25.68H197.165V28.688H176.621ZM180.397 5.712C180.397 7.088 182.413 7.632 186.605 7.632C190.797 7.632 192.813 7.088 192.813 5.712C192.813 4.432 190.797 3.76 186.605 3.728C182.413 3.76 180.397 4.432 180.397 5.712ZM224.837 3.216V6.352H219.141C219.205 9.168 221.253 12.016 225.797 13.136L224.005 16.208C220.741 15.376 218.469 13.616 217.189 11.344C215.909 13.84 213.637 15.824 210.309 16.72L208.453 13.584C212.965 12.432 215.109 9.424 215.173 6.352H209.413V3.216H215.173V0.335999H219.205V3.216H224.837ZM211.205 25.744C216.165 25.104 218.949 23.152 219.653 21.008H212.421V17.872H231.557V21.008H224.325C225.061 23.12 227.877 25.136 232.837 25.744L231.365 28.816C226.821 28.208 223.621 26.384 221.989 23.952C220.325 26.384 217.157 28.144 212.613 28.752L211.205 25.744ZM227.205 16.656V0.4H231.237V6.8H235.077V10.128H231.237V16.656H227.205ZM249.293 0.848C255.821 0.848 259.597 2.544 259.597 5.712C259.597 8.848 255.821 10.576 249.293 10.576C242.701 10.576 238.893 8.848 238.925 5.712C238.893 2.544 242.701 0.848 249.293 0.848ZM236.301 15.056V11.92H262.285V15.056H236.301ZM239.309 28.688V21.2H255.181V19.664H239.309V16.72H259.085V23.952H243.213V25.68H259.853V28.688H239.309ZM243.085 5.712C243.085 7.088 245.101 7.632 249.293 7.632C253.485 7.632 255.501 7.088 255.501 5.712C255.501 4.432 253.485 3.76 249.293 3.728C245.101 3.76 243.085 4.432 243.085 5.712ZM286.436 2.64C286.436 6 289.86 9.712 296.356 10.512L294.82 13.776C289.828 13.04 286.18 10.736 284.356 7.632C282.5 10.736 278.852 13.04 273.892 13.776L272.356 10.512C278.82 9.712 282.244 6 282.212 2.64V1.296H286.436V2.64ZM271.332 19.152V15.888H297.316V19.152H286.244V28.88H282.276V19.152H271.332ZM313.211 17.104V19.92H316.283V17.104H319.931V25.68C323.131 24.304 324.475 21.616 324.475 19.024V16.848H328.443V19.024C328.443 21.936 329.851 24.688 333.371 25.808L331.323 28.816C328.891 27.952 327.323 26.352 326.395 24.336C325.467 26.288 323.899 27.92 321.595 28.816L319.931 26.288V28.56H309.499V17.104H313.211ZM306.747 8.208C306.715 4.272 309.947 1.52 314.299 1.488C317.915 1.52 320.795 3.504 321.627 6.544H326.395V0.4H330.363V15.504H326.395V9.808H321.627C320.859 12.912 317.947 14.928 314.299 14.928C309.947 14.928 306.715 12.176 306.747 8.208ZM310.523 8.208C310.523 10.352 312.091 11.664 314.299 11.664C316.475 11.664 318.011 10.352 318.011 8.208C318.011 6.096 316.475 4.784 314.299 4.816C312.091 4.784 310.523 6.096 310.523 8.208ZM313.211 25.552H316.283V22.864H313.211V25.552ZM341.892 2.448C345.7 2.448 348.58 5.584 349.156 10.704H354.116V0.4H358.02V28.944H354.116V13.904H349.188C348.772 19.344 345.828 22.736 341.892 22.736C337.54 22.736 334.468 18.8 334.468 12.56C334.468 6.352 337.54 2.448 341.892 2.448ZM338.308 12.56C338.276 16.816 339.748 19.088 341.892 19.088C344.036 19.088 345.444 16.816 345.476 12.56C345.444 8.336 344.036 6.032 341.892 6.032C339.748 6.032 338.276 8.336 338.308 12.56ZM387.724 22.288V25.552H361.676V22.288H367.5V15.312C365.292 13.968 363.98 11.952 363.98 9.424C363.98 4.88 368.492 1.808 374.668 1.808C380.812 1.808 385.356 4.88 385.356 9.424C385.356 11.92 384.044 13.936 381.9 15.248V22.288H387.724ZM367.884 9.424C367.916 12.24 370.572 13.968 374.668 13.968C378.668 13.968 381.42 12.24 381.452 9.424C381.42 6.608 378.668 4.944 374.668 4.944C370.572 4.944 367.916 6.608 367.884 9.424ZM371.468 22.288H377.868V16.752C376.876 16.944 375.788 17.04 374.668 17.04C373.548 17.04 372.46 16.944 371.468 16.752V22.288ZM393.044 26.256C391.572 26.288 390.356 25.104 390.42 23.632C390.356 22.224 391.572 21.04 393.044 21.072C394.42 21.04 395.636 22.224 395.668 23.632C395.636 25.104 394.42 26.288 393.044 26.256Z" fill="#C7C7C7"/>
</svg>
